<svg version="1.0" xmlns="http://www.w3.org/2000/svg"
 width="675.000000pt" height="675.000000pt" viewBox="0 0 675.000000 675.000000"
 preserveAspectRatio="xMidYMid meet">
<metadata>
Created by potrace 1.10, written by Peter Selinger 2001-2011
</metadata>
<g transform="translate(0.000000,675.000000) scale(0.100000,-0.100000)"
fill="#e2128c" stroke="none">
<path d="M3040 6035 c-7 -8 -18 -15 -25 -15 -7 0 -18 -7 -25 -15 -7 -8 -20
-15 -29 -15 -10 0 -28 -11 -41 -25 -21 -22 -22 -26 -8 -42 8 -10 18 -25 22
-33 3 -8 15 -28 25 -45 35 -55 151 -291 151 -307 0 -9 7 -21 15 -28 8 -7 15
-22 15 -34 0 -12 7 -31 15 -42 8 -10 15 -28 15 -40 0 -11 7 -29 15 -40 8 -10
15 -31 15 -45 0 -14 7 -34 15 -45 8 -10 15 -31 15 -45 0 -14 7 -34 15 -45 8
-10 15 -32 15 -49 0 -16 7 -41 15 -55 8 -14 14 -41 15 -60 0 -19 7 -48 15 -64
8 -15 15 -44 15 -62 0 -19 7 -51 15 -71 8 -19 15 -55 15 -78 0 -23 7 -62 15
-85 8 -23 15 -66 15 -94 1 -28 6 -71 11 -96 6 -25 14 -125 19 -223 8 -189 23
-247 34 -136 17 165 3 661 -20 743 -8 27 -14 76 -14 107 0 32 -5 70 -11 86 -6
15 -15 55 -19 88 -7 57 -13 89 -40 195 -6 25 -15 63 -19 85 -4 22 -13 51 -18
65 -6 14 -18 52 -27 85 -10 33 -24 73 -32 88 -8 16 -14 35 -14 42 0 8 -7 31
-16 52 -9 21 -22 53 -30 71 -7 18 -20 47 -27 65 -30 70 -83 171 -93 174 -6 2
-17 -3 -24 -12z"/>
<path d="M3947 6039 c-9 -6 -17 -15 -17 -21 0 -9 -44 -108 -81 -180 -5 -10 -9
-23 -9 -31 0 -7 -9 -29 -20 -50 -11 -20 -20 -43 -20 -51 0 -7 -7 -27 -15 -42
-8 -16 -15 -37 -15 -46 0 -9 -4 -19 -9 -22 -5 -4 -12 -25 -16 -49 -4 -23 -11
-46 -15 -52 -4 -5 -13 -32 -20 -60 -31 -132 -40 -174 -51 -225 -6 -30 -15 -71
-20 -90 -11 -40 -26 -151 -39 -295 -6 -55 -14 -140 -20 -190 -13 -121 -21
-589 -11 -645 l8 -45 6 35 c3 19 9 82 12 140 9 179 48 522 65 580 6 19 15 62
20 95 12 81 31 166 41 190 4 11 11 36 14 55 9 46 34 131 46 152 5 9 12 35 15
58 4 22 11 43 15 46 5 3 9 13 9 22 1 9 9 35 20 57 11 22 19 46 20 53 0 7 4 20
10 30 5 9 19 40 30 67 12 28 28 64 36 82 8 17 14 36 14 42 0 6 5 11 10 11 6 0
10 6 10 13 0 12 3 18 62 127 61 110 73 130 81 130 22 0 0 23 -55 56 -35 20
-70 43 -78 50 -10 9 -20 10 -33 3z"/>
<path d="M3283 5839 c-27 -10 -28 -23 -8 -63 8 -15 15 -36 15 -45 0 -9 6 -25
14 -36 7 -11 17 -36 21 -55 4 -19 11 -41 16 -50 14 -27 39 -118 39 -142 0 -14
7 -33 15 -44 8 -10 15 -39 15 -64 0 -53 15 -85 26 -57 7 18 4 44 -14 117 -6
25 -15 72 -21 105 -9 55 -17 95 -52 255 -14 67 -35 92 -66 79z"/>
<path d="M1804 5482 c-75 -116 -76 -119 -59 -136 9 -9 23 -16 31 -16 8 0 14
-3 14 -8 0 -4 17 -16 37 -27 20 -11 41 -25 47 -30 6 -6 29 -22 51 -35 22 -13
42 -27 45 -30 3 -3 36 -29 74 -59 72 -56 109 -86 136 -111 8 -8 50 -45 92 -83
42 -37 118 -115 169 -174 52 -58 101 -114 109 -122 8 -9 37 -45 64 -81 27 -36
56 -72 63 -80 11 -13 76 -102 121 -167 39 -57 91 -139 139 -218 29 -49 58 -97
63 -105 6 -8 14 -25 19 -37 6 -11 15 -24 20 -28 6 -3 11 -15 11 -25 0 -25 19
-35 27 -14 4 10 0 22 -10 29 -10 7 -17 18 -17 26 1 12 -158 337 -170 349 -5 5
-25 42 -63 115 -12 22 -24 42 -28 45 -3 3 -15 21 -25 40 -19 36 -170 265 -189
287 -15 19 -26 33 -78 100 -26 34 -53 68 -60 75 -6 7 -43 49 -82 93 -92 104
-175 188 -254 255 -36 30 -72 62 -81 70 -31 28 -65 55 -91 72 -14 9 -33 23
-40 30 -56 51 -52 51 -85 0z"/>
<path d="M5040 5449 c-213 -162 -489 -448 -634 -658 -21 -31 -41 -58 -45 -61
-4 -3 -18 -23 -31 -45 -13 -22 -28 -43 -32 -46 -5 -3 -18 -23 -29 -44 -11 -21
-33 -56 -47 -79 -14 -23 -35 -57 -45 -76 -11 -19 -32 -54 -48 -78 -16 -24 -29
-49 -29 -56 0 -8 -7 -19 -15 -26 -8 -7 -15 -21 -15 -31 0 -10 -4 -20 -10 -24
-11 -7 -80 -146 -80 -162 0 -6 -7 -16 -15 -23 -8 -7 -15 -20 -15 -30 0 -10 -7
-23 -15 -30 -8 -7 -15 -23 -15 -35 0 -13 -7 -25 -15 -29 -8 -3 -15 -17 -15
-31 0 -29 18 -34 26 -7 3 9 10 24 15 32 5 8 13 25 19 38 5 12 28 50 50 83 22
33 40 64 40 68 0 13 212 326 226 334 8 4 14 13 14 19 0 10 54 83 76 103 6 6
33 39 60 75 88 117 407 426 556 538 75 56 139 102 142 102 3 0 22 12 43 26 21
14 48 30 61 35 31 12 28 47 -8 97 -16 23 -30 46 -30 51 0 11 -28 41 -39 41 -4
0 -50 -32 -101 -71z"/>
<path d="M4314 5226 c-16 -19 -36 -44 -44 -56 -8 -12 -29 -41 -47 -65 -53 -71
-137 -215 -192 -330 -29 -61 -59 -122 -67 -137 -8 -14 -14 -33 -14 -42 0 -9
-4 -24 -10 -34 -21 -39 -61 -156 -94 -277 -9 -33 -23 -80 -31 -105 -17 -50
-20 -110 -6 -110 5 0 12 15 16 33 8 38 33 115 46 140 5 9 16 39 25 65 26 78
139 317 161 340 7 7 13 18 13 23 0 11 59 109 77 127 7 7 13 19 13 25 0 7 10
23 23 37 12 14 31 39 42 56 23 37 89 115 162 193 28 31 48 61 45 67 -14 24
-72 84 -80 84 -5 0 -22 -15 -38 -34z"/>
<path d="M2607 5200 c-21 -22 -37 -44 -35 -49 1 -4 40 -48 85 -97 91 -100 123
-138 123 -151 0 -4 14 -21 30 -37 17 -16 30 -37 30 -47 0 -10 6 -22 13 -26 8
-4 22 -24 33 -43 10 -19 24 -42 31 -51 24 -29 163 -310 163 -328 0 -10 7 -24
15 -31 8 -7 15 -19 15 -27 0 -8 6 -29 13 -46 20 -47 38 -98 47 -135 4 -18 13
-38 18 -45 6 -7 12 -27 14 -46 2 -19 9 -36 16 -39 17 -5 16 50 -3 95 -8 19
-15 45 -15 57 0 19 -12 61 -42 151 -5 17 -14 47 -19 68 -5 21 -13 45 -18 55
-14 28 -33 85 -38 114 -3 15 -11 33 -19 39 -8 6 -14 18 -14 25 0 8 -13 43 -30
77 -16 35 -30 69 -30 75 0 6 -6 17 -13 24 -6 7 -24 38 -40 68 -42 85 -72 136
-101 174 -14 19 -26 39 -26 44 0 5 -10 17 -21 28 -12 10 -33 37 -47 59 -34 54
-64 85 -82 84 -8 0 -32 -17 -53 -39z"/>
<path d="M2978 5121 c-10 -10 -18 -23 -18 -30 0 -10 36 -68 51 -81 8 -7 103
-170 116 -200 7 -14 21 -47 33 -75 12 -27 25 -59 30 -70 22 -51 70 -206 70
-227 0 -12 7 -36 15 -52 8 -15 15 -48 15 -71 0 -50 8 -77 21 -69 13 8 11 88
-3 121 -6 15 -14 53 -18 83 -4 30 -12 69 -18 85 -6 17 -20 64 -32 105 -12 41
-26 83 -31 92 -5 10 -9 23 -9 29 0 6 -7 27 -16 47 -49 116 -45 106 -97 207
-12 22 -24 42 -27 45 -4 3 -15 22 -25 43 -19 41 -31 45 -57 18z"/>
<path d="M4010 5118 c-6 -13 -24 -45 -40 -73 -29 -49 -70 -130 -95 -190 -7
-16 -18 -41 -24 -55 -17 -41 -42 -113 -51 -150 -24 -95 -32 -127 -42 -155 -6
-16 -14 -59 -18 -95 -3 -36 -12 -75 -19 -88 -14 -26 -11 -127 4 -127 6 0 11
29 13 64 2 35 10 73 18 85 7 11 14 35 14 54 0 18 5 43 12 55 6 12 15 38 19 57
17 73 35 130 47 142 7 7 12 20 12 30 0 10 4 26 9 36 5 9 32 64 61 122 28 58
69 130 90 160 22 30 47 68 56 84 16 28 15 30 -7 47 -32 25 -47 24 -59 -3z"/>
<path d="M1287 4963 c-4 -3 -7 -14 -7 -23 0 -9 -6 -30 -14 -46 -8 -16 -17 -45
-20 -64 -5 -32 -3 -38 23 -53 16 -9 40 -17 53 -17 12 0 32 -7 42 -15 11 -8 30
-15 42 -15 12 0 35 -6 51 -14 29 -15 87 -41 138 -62 66 -27 222 -108 263 -135
24 -16 47 -29 51 -29 25 0 408 -275 497 -357 22 -21 65 -58 95 -83 71 -59 271
-258 339 -339 95 -111 109 -125 117 -117 4 4 0 13 -10 20 -9 7 -17 16 -17 19
0 3 -13 21 -30 39 -16 18 -30 38 -30 45 0 6 -6 16 -13 20 -7 4 -35 37 -62 73
-26 36 -53 70 -59 75 -6 6 -36 39 -66 75 -30 35 -71 82 -90 104 -60 69 -273
279 -325 321 -47 38 -99 83 -153 133 -14 12 -29 22 -33 22 -5 0 -26 15 -46 33
-37 33 -219 157 -230 157 -3 0 -25 14 -50 30 -24 17 -48 30 -52 30 -5 0 -14 7
-21 15 -7 8 -20 15 -30 15 -10 0 -23 7 -30 15 -7 8 -20 15 -30 15 -10 0 -23 7
-30 15 -7 8 -20 15 -30 15 -10 0 -23 7 -30 15 -7 8 -20 15 -30 15 -10 0 -23 7
-30 15 -7 8 -22 15 -34 15 -11 0 -30 7 -40 15 -21 16 -58 20 -69 8z"/>
<path d="M5405 4870 c-3 -5 -27 -20 -53 -33 -72 -38 -92 -49 -157 -92 -33 -22
-68 -44 -77 -50 -40 -24 -125 -85 -148 -105 -14 -12 -36 -30 -50 -39 -26 -17
-62 -45 -90 -71 -8 -8 -54 -47 -100 -87 -91 -77 -281 -268 -370 -372 -30 -35
-66 -76 -79 -90 -13 -14 -67 -82 -119 -151 -53 -69 -103 -130 -111 -136 -8 -6
-10 -14 -5 -17 6 -3 46 33 89 81 161 175 350 355 475 453 30 24 66 53 80 66
14 13 28 23 31 23 3 0 15 8 27 18 11 9 30 24 42 32 12 8 47 33 78 56 93 66
277 173 406 236 67 33 129 64 138 69 10 5 24 9 32 9 8 0 26 10 40 23 19 16 24
28 20 45 -4 12 -10 22 -15 22 -5 0 -9 7 -9 16 0 9 -6 28 -14 42 -8 15 -17 35
-20 45 -6 18 -31 23 -41 7z"/>
<path d="M1098 4663 c-12 -3 -18 -14 -18 -32 0 -24 4 -28 33 -28 63 0 243 -24
285 -39 23 -7 50 -14 60 -14 9 0 49 -12 87 -26 39 -14 84 -29 100 -31 17 -3
39 -12 50 -19 11 -8 28 -14 38 -14 26 0 15 24 -13 28 -13 2 -30 10 -37 18 -8
8 -25 14 -37 14 -13 0 -29 7 -36 15 -7 8 -22 15 -34 15 -12 0 -26 4 -32 8 -8
8 -45 21 -179 62 -16 5 -48 12 -70 15 -22 4 -51 10 -65 15 -32 11 -110 18
-132 13z"/>
<path d="M2266 4615 c-21 -32 -20 -54 2 -62 39 -15 184 -134 283 -234 100
-100 259 -296 259 -318 0 -6 6 -14 13 -18 8 -4 16 -16 20 -25 6 -18 27 -25 27
-10 0 22 -158 274 -181 287 -5 4 -21 25 -35 46 -35 56 -268 293 -310 315 -19
10 -34 22 -34 25 0 19 -30 15 -44 -6z"/>
<path d="M4669 4624 c-7 -9 -40 -37 -74 -62 -93 -71 -148 -129 -291 -307 -34
-42 -114 -154 -114 -160 0 -2 -13 -24 -30 -48 -16 -25 -30 -49 -30 -55 0 -5
-7 -15 -15 -22 -8 -7 -15 -19 -15 -28 0 -8 -8 -21 -17 -28 -14 -10 -15 -15 -6
-25 10 -10 14 -8 19 7 4 10 13 23 21 27 7 4 13 16 13 25 0 9 12 31 26 47 13
17 56 73 95 125 38 52 111 137 162 189 86 87 260 229 300 244 24 9 21 40 -6
66 -22 20 -25 20 -38 5z"/>
<path d="M5585 4515 c-27 -6 -57 -14 -65 -17 -8 -3 -42 -13 -75 -22 -33 -10
-73 -24 -90 -31 -16 -8 -41 -15 -54 -17 -14 -2 -26 -9 -29 -15 -5 -17 45 -17
94 1 22 7 64 16 94 20 87 10 184 29 194 37 10 9 0 60 -12 58 -4 -1 -29 -7 -57
-14z"/>
<path d="M1762 4448 c3 -7 15 -15 27 -16 16 -3 22 1 19 10 -3 7 -15 15 -27 16
-16 3 -22 -1 -19 -10z"/>
<path d="M5202 4391 c-11 -7 -11 -9 2 -14 19 -7 46 1 46 14 0 11 -31 11 -48 0z"/>
<path d="M5180 4115 c-19 -7 -62 -17 -95 -23 -83 -14 -158 -33 -170 -42 -5 -4
-26 -11 -45 -15 -19 -4 -41 -11 -50 -15 -8 -4 -46 -22 -85 -40 -38 -17 -77
-36 -85 -41 -8 -5 -22 -12 -30 -15 -8 -3 -22 -10 -30 -15 -8 -5 -25 -13 -38
-19 -12 -5 -50 -28 -83 -50 -33 -22 -64 -40 -69 -40 -5 0 -13 -6 -17 -13 -4
-8 -16 -16 -25 -20 -10 -3 -18 -11 -18 -17 0 -16 27 -12 34 5 3 8 14 15 25 15
11 0 24 6 28 13 7 10 186 103 248 128 11 4 41 17 67 28 26 12 53 21 60 21 8 0
18 4 24 9 9 9 55 21 174 46 36 8 76 17 90 20 14 3 52 6 85 8 l60 2 3 36 c4 44
-10 52 -58 34z"/>
<path d="M1742 4084 l3 -39 80 -6 c109 -9 281 -46 342 -74 17 -8 36 -15 42
-15 6 0 19 -4 29 -10 9 -5 35 -17 57 -26 80 -34 205 -96 211 -105 3 -5 14 -9
25 -9 10 0 19 -4 19 -10 0 -5 11 -12 24 -16 14 -3 27 -12 30 -20 6 -16 36 -19
36 -3 0 6 -9 13 -20 16 -11 3 -20 9 -20 14 0 5 -10 14 -22 19 -13 6 -36 19
-53 30 -16 11 -39 24 -50 30 -11 6 -42 24 -70 40 -27 17 -61 35 -75 41 -30 12
-148 67 -171 79 -9 5 -33 12 -53 15 -20 4 -39 11 -42 16 -3 5 -14 9 -24 9 -11
0 -39 7 -63 15 -25 8 -73 20 -108 25 -35 6 -79 14 -97 17 l-33 5 3 -38z"/>
<path d="M3774 4025 c-3 -14 -3 -33 0 -42 6 -15 8 -15 16 -3 13 20 13 70 0 70
-5 0 -12 -11 -16 -25z"/>
<path d="M3237 3954 c-10 -11 -9 -52 3 -59 6 -3 13 1 16 10 8 19 -8 60 -19 49z"/>
<path d="M1486 3929 c-3 -8 -2 -39 2 -69 l7 -55 240 -5 c158 -4 250 -10 268
-18 16 -6 49 -12 75 -12 26 0 56 -7 66 -15 11 -8 37 -15 59 -15 21 0 48 -5 60
-12 12 -6 38 -15 57 -19 56 -11 161 -49 283 -103 21 -9 44 -16 51 -16 8 0 19
-7 26 -15 7 -8 22 -15 33 -15 11 0 25 -7 32 -17 7 -10 19 -14 29 -10 22 9 11
27 -15 27 -10 0 -19 4 -19 10 0 5 -11 12 -25 16 -14 3 -25 10 -25 14 0 4 -12
13 -27 19 -16 6 -37 16 -48 22 -38 23 -50 29 -65 35 -8 4 -42 19 -75 34 -33
15 -80 35 -105 45 -25 10 -59 24 -77 31 -17 8 -37 14 -45 14 -7 0 -22 6 -33
14 -11 7 -33 16 -50 19 -51 9 -118 29 -153 43 -18 8 -51 14 -73 14 -22 0 -50
5 -62 12 -12 7 -71 15 -132 19 -60 4 -143 10 -182 14 -58 6 -74 5 -77 -6z"/>
<path d="M5350 3929 c-25 -4 -77 -8 -116 -8 -39 -1 -93 -8 -120 -16 -27 -8
-63 -15 -81 -15 -18 0 -47 -6 -65 -14 -31 -13 -55 -20 -163 -47 -22 -6 -44
-14 -49 -20 -6 -5 -19 -9 -31 -9 -12 0 -30 -7 -41 -15 -10 -8 -29 -15 -40 -15
-12 0 -27 -7 -34 -15 -7 -8 -19 -15 -28 -15 -21 0 -342 -160 -342 -170 0 -5
-10 -10 -22 -12 -12 -2 -23 -9 -26 -15 -5 -18 23 -16 38 2 7 8 23 15 35 15 12
0 28 7 35 15 7 8 23 15 35 15 12 0 28 6 34 14 6 8 22 16 34 19 12 3 47 15 77
27 30 12 69 25 85 30 28 8 48 14 130 42 17 6 50 13 75 17 25 4 55 13 67 19 12
7 41 12 65 12 24 0 65 7 92 15 37 11 103 15 267 15 121 0 220 4 223 9 4 5 9
37 12 70 l7 61 -54 -1 c-30 -1 -74 -5 -99 -10z"/>
<path d="M3082 3849 c2 -7 10 -15 17 -17 8 -3 12 1 9 9 -2 7 -10 15 -17 17 -8
3 -12 -1 -9 -9z"/>
<path d="M4040 3844 c0 -9 5 -14 12 -12 18 6 21 28 4 28 -9 0 -16 -7 -16 -16z"/>
<path d="M3863 3825 c-3 -9 -3 -18 0 -21 9 -9 27 6 27 22 0 19 -19 18 -27 -1z"/>
<path d="M2652 3728 c5 -15 28 -18 29 -3 0 6 -7 12 -17 13 -10 3 -15 -1 -12
-10z"/>
<path d="M2692 3701 c2 -7 7 -12 11 -12 12 1 9 15 -3 20 -7 2 -11 -2 -8 -8z"/>
<path d="M1764 3656 c-3 -8 -4 -25 -2 -38 3 -21 7 -23 53 -19 27 1 60 7 73 12
38 15 224 11 291 -7 65 -16 110 -16 114 1 1 6 -23 13 -53 17 -30 3 -73 11 -95
16 -119 32 -371 43 -381 18z"/>
<path d="M4980 3660 c-14 -4 -49 -8 -78 -9 -29 -1 -69 -8 -89 -16 -19 -8 -52
-15 -72 -15 -20 0 -43 -4 -51 -10 -32 -20 24 -23 119 -6 104 19 246 18 335 -3
56 -13 63 -9 68 34 l3 30 -105 2 c-58 1 -116 -2 -130 -7z"/>
<path d="M2810 3516 c0 -9 7 -16 16 -16 9 0 14 5 12 12 -6 18 -28 21 -28 4z"/>
<path d="M995 3425 c-27 -7 -71 -14 -97 -14 -69 -1 -78 -7 -71 -44 8 -45 18
-52 45 -35 13 8 39 18 58 20 19 3 49 10 65 16 54 19 179 42 227 42 53 0 80 8
72 21 -8 13 -242 9 -299 -6z"/>
<path d="M4705 3390 c-27 -5 -91 -9 -142 -9 -50 -1 -127 -8 -170 -16 -43 -8
-104 -15 -135 -15 -31 0 -63 -3 -72 -6 -48 -19 29 -24 342 -24 268 0 361 -4
407 -15 33 -8 90 -14 126 -15 37 0 86 -7 109 -15 23 -8 62 -15 85 -15 23 0 62
-7 85 -15 23 -8 57 -15 74 -15 17 -1 42 -7 56 -15 14 -8 41 -15 60 -15 19 0
46 -7 60 -15 14 -8 37 -14 51 -15 14 0 34 -7 45 -15 10 -8 33 -15 49 -15 17 0
39 -7 49 -15 11 -8 29 -15 40 -15 12 0 30 -7 40 -15 11 -8 28 -15 38 -15 10 0
26 -4 36 -9 52 -28 104 -51 114 -51 6 0 19 -7 29 -16 17 -15 19 -14 38 17 12
19 21 41 21 49 0 8 7 24 15 34 8 11 15 26 15 35 0 8 7 22 15 31 15 16 13 19
-25 39 -22 11 -51 21 -63 21 -12 1 -33 7 -47 15 -14 8 -38 15 -55 15 -16 0
-41 7 -55 15 -14 8 -41 15 -60 15 -19 0 -46 7 -60 15 -14 8 -43 15 -65 15 -22
0 -58 7 -80 15 -22 8 -63 14 -90 15 -28 0 -66 5 -85 11 -76 24 -690 46 -795
29z"/>
<path d="M1762 3380 c-85 -4 -181 -13 -215 -19 -34 -6 -93 -15 -132 -20 -86
-12 -205 -35 -225 -43 -8 -4 -34 -9 -58 -12 -24 -4 -51 -10 -60 -15 -16 -8
-41 -15 -147 -42 -22 -6 -44 -14 -50 -20 -5 -5 -18 -9 -30 -9 -11 0 -33 -7
-49 -15 -15 -8 -33 -15 -38 -15 -8 0 -46 -16 -135 -56 -17 -8 -34 -14 -39 -14
-4 0 -15 -7 -25 -16 -17 -15 -17 -18 4 -53 12 -20 33 -57 47 -84 13 -26 30
-47 36 -47 6 0 67 28 136 63 69 34 141 68 159 76 82 33 125 52 141 61 10 6 26
10 35 10 10 0 30 6 45 14 15 8 41 17 59 21 19 4 40 11 49 15 20 10 117 38 160
46 19 4 41 10 50 15 8 4 42 13 75 19 33 6 96 18 140 26 270 49 526 67 835 60
155 -4 251 -2 260 4 18 12 26 10 -100 20 -58 5 -150 13 -205 19 -145 14 -545
21 -723 11z"/>
<path d="M2300 3219 c-19 -5 -77 -14 -128 -19 -51 -5 -101 -14 -112 -20 -10
-5 -38 -10 -62 -10 -24 0 -53 -7 -64 -15 -10 -8 -32 -15 -49 -15 -16 0 -43 -7
-59 -15 -15 -8 -35 -15 -43 -15 -8 0 -29 -6 -46 -14 -18 -7 -52 -21 -77 -30
-25 -10 -58 -24 -73 -32 -16 -8 -34 -14 -42 -14 -7 0 -18 -7 -25 -15 -7 -8
-20 -15 -30 -15 -10 0 -23 -7 -30 -15 -7 -8 -21 -15 -31 -15 -24 0 -39 -29
-29 -55 5 -11 21 -35 37 -54 l29 -33 84 56 c46 31 90 56 96 56 6 0 17 7 24 15
7 8 20 15 30 15 10 0 23 7 30 15 7 8 20 15 29 15 9 0 22 5 29 12 12 12 71 36
112 45 14 3 32 11 40 18 8 7 29 15 45 18 17 2 45 10 63 16 17 6 47 16 65 22
17 6 55 15 83 19 28 4 61 13 72 19 11 6 37 11 56 11 19 0 61 7 93 15 31 8 85
15 119 15 33 0 90 3 125 7 49 5 58 8 39 14 -36 10 -359 9 -400 -2z"/>
<path d="M4315 3190 c-24 -10 -25 -10 100 -20 55 -5 134 -15 175 -24 156 -32
195 -41 205 -48 6 -3 28 -9 50 -13 22 -4 45 -11 50 -15 6 -4 25 -11 43 -15 18
-4 45 -13 60 -21 15 -8 35 -14 45 -14 9 0 17 -4 17 -10 0 -5 8 -10 18 -10 21
0 266 -123 288 -144 8 -9 20 -16 25 -16 5 0 34 -18 63 -40 53 -40 86 -51 86
-27 0 7 13 29 30 49 l29 36 -22 16 c-42 31 -112 67 -252 131 -56 25 -100 42
-160 60 -33 9 -67 21 -76 26 -9 4 -34 11 -55 14 -22 4 -46 9 -54 13 -32 12
-231 46 -425 72 -87 11 -213 11 -240 0z"/>
<path d="M2687 2984 c-14 -14 -7 -25 13 -22 12 2 21 8 21 13 0 12 -24 18 -34
9z"/>
<path d="M4310 2980 c0 -14 26 -23 41 -15 8 6 7 10 -2 16 -19 12 -39 11 -39
-1z"/>
<path d="M1915 2949 c-10 -15 1 -22 24 -14 12 3 19 11 16 16 -8 12 -32 11 -40
-2z"/>
<path d="M2594 2945 c-10 -8 -27 -15 -37 -15 -11 0 -31 -7 -45 -15 -39 -21
-119 -55 -131 -55 -5 0 -11 -3 -13 -7 -1 -5 -25 -19 -51 -33 -90 -47 -102 -53
-107 -59 -3 -3 -31 -23 -63 -45 l-57 -39 35 -34 36 -35 47 44 c93 86 107 98
114 98 3 0 13 6 20 13 28 28 253 155 301 171 9 3 17 10 17 16 0 15 -43 12 -66
-5z"/>
<path d="M4382 2948 c3 -7 17 -14 31 -16 15 -2 27 -7 27 -12 0 -4 12 -13 28
-19 35 -15 71 -36 85 -50 6 -6 16 -11 23 -11 14 0 184 -113 250 -166 83 -67
194 -176 251 -246 57 -72 78 -81 108 -48 17 19 17 21 -15 57 -53 61 -160 162
-225 211 -33 25 -62 49 -65 52 -3 4 -27 20 -53 36 -27 16 -61 37 -75 46 -27
17 -76 44 -166 92 -27 14 -55 26 -61 26 -7 0 -18 7 -25 15 -7 8 -23 15 -35 15
-12 0 -28 7 -35 15 -15 18 -53 20 -48 3z"/>
<path d="M1840 2915 c-14 -7 -50 -25 -80 -39 -30 -14 -77 -39 -105 -56 -27
-16 -61 -35 -75 -40 -13 -6 -27 -15 -30 -19 -3 -4 -23 -18 -45 -31 -22 -13
-42 -26 -45 -30 -3 -3 -24 -18 -47 -33 -23 -16 -59 -45 -81 -65 -158 -146
-160 -149 -121 -176 21 -14 26 -10 123 88 105 107 111 111 217 192 104 78 163
116 212 135 15 6 27 15 27 20 0 5 6 9 14 9 8 0 21 6 28 14 8 8 23 15 33 17 21
5 33 29 13 29 -7 0 -24 -7 -38 -15z"/>
<path d="M2805 2919 c-4 -6 -4 -13 -1 -16 8 -8 36 5 36 17 0 13 -27 13 -35 -1z"/>
<path d="M4136 2922 c-3 -6 -1 -14 5 -17 15 -10 25 3 12 16 -7 7 -13 7 -17 1z"/>
<path d="M4976 2921 c-7 -11 22 -23 36 -15 6 4 5 10 -3 15 -18 11 -26 11 -33
0z"/>
<path d="M2130 2885 c-7 -8 -19 -15 -27 -15 -8 0 -27 -6 -41 -14 -15 -8 -34
-17 -42 -20 -8 -4 -28 -15 -45 -26 -16 -11 -39 -24 -50 -29 -11 -5 -58 -35
-105 -66 -47 -32 -99 -67 -116 -79 -18 -12 -87 -75 -154 -142 l-122 -121 35
-21 c19 -12 37 -22 39 -22 3 0 18 19 33 41 83 126 300 313 495 426 41 24 82
48 90 53 8 6 25 15 38 20 13 5 20 14 17 20 -9 15 -31 12 -45 -5z"/>
<path d="M2751 2886 c-7 -8 -23 -17 -36 -20 -14 -4 -25 -11 -25 -16 0 -6 -5
-10 -11 -10 -20 0 -355 -229 -379 -259 -3 -3 -44 -38 -93 -76 -104 -83 -339
-320 -422 -425 -33 -41 -64 -78 -68 -81 -5 -4 -14 -16 -20 -27 -7 -11 -49 -75
-94 -142 -46 -66 -83 -123 -83 -125 0 -3 -13 -27 -30 -53 -36 -59 -38 -88 -7
-97 21 -6 52 -19 110 -46 24 -11 30 -11 37 1 6 8 10 21 10 28 0 12 16 48 41
92 5 8 12 22 15 30 3 8 10 22 15 30 5 8 11 20 13 25 11 28 18 42 29 60 7 11
28 46 47 79 40 67 48 79 113 175 27 39 55 77 62 85 8 7 36 42 62 77 151 199
461 491 686 644 37 26 67 51 67 56 0 14 -26 11 -39 -5z"/>
<path d="M4184 2889 c-3 -6 3 -13 15 -16 12 -3 21 -9 21 -13 0 -5 21 -22 48
-38 26 -16 67 -45 90 -66 24 -20 47 -36 50 -36 4 0 23 -15 43 -33 19 -17 62
-54 95 -82 105 -89 195 -178 287 -285 51 -58 94 -107 97 -110 7 -6 127 -166
150 -200 8 -12 23 -33 33 -45 9 -13 17 -28 17 -33 0 -6 4 -12 8 -14 11 -4 82
-123 82 -136 0 -6 3 -12 8 -14 8 -3 112 -209 112 -224 0 -5 7 -17 15 -28 13
-17 15 -17 37 -2 12 9 30 16 40 16 10 0 18 4 18 8 0 4 15 12 33 17 26 8 31 15
29 34 -3 34 -155 282 -230 376 -4 6 -32 42 -62 80 -78 102 -428 449 -500 496
-14 9 -38 29 -55 43 -16 15 -48 39 -70 54 -22 15 -42 29 -45 32 -3 4 -23 17
-45 30 -22 13 -42 27 -45 30 -3 3 -23 17 -45 30 -22 13 -46 30 -53 37 -7 7
-18 13 -23 13 -5 0 -28 14 -51 30 -22 17 -47 30 -55 30 -7 0 -13 4 -13 9 0 14
-29 22 -36 10z"/>
<path d="M5032 2888 c3 -7 17 -14 31 -16 15 -2 27 -7 27 -12 0 -4 19 -18 41
-30 53 -27 203 -126 224 -147 9 -8 41 -34 73 -57 63 -47 203 -186 254 -253 18
-24 40 -43 49 -43 18 0 49 25 49 40 0 9 -111 124 -180 185 -57 52 -252 195
-265 195 -3 0 -24 12 -48 27 -63 41 -81 52 -97 58 -8 4 -22 11 -30 16 -8 5
-22 12 -30 15 -8 3 -27 12 -42 20 -32 17 -61 18 -56 2z"/>
<path d="M2774 2757 c-21 -22 -86 -77 -129 -108 -57 -41 -337 -327 -368 -376
-14 -21 -34 -47 -46 -57 -11 -11 -21 -23 -21 -29 0 -5 -12 -26 -27 -46 -29
-37 -35 -47 -83 -136 l-29 -54 26 -21 c31 -24 47 -22 51 8 2 11 10 26 18 32 8
7 14 20 14 30 0 10 7 23 15 30 8 7 15 20 15 30 0 10 7 23 15 30 8 7 15 16 15
21 0 10 59 107 88 145 12 16 33 44 46 62 59 82 253 285 375 392 48 42 61 61
44 60 -5 -1 -13 -6 -19 -13z"/>
<path d="M4010 2714 c0 -4 21 -28 48 -54 53 -53 79 -83 136 -155 22 -27 51
-61 64 -75 12 -14 33 -41 45 -60 12 -19 29 -44 39 -54 10 -11 37 -51 60 -90
23 -39 44 -73 48 -76 4 -3 14 -18 22 -35 95 -183 138 -271 143 -296 4 -16 10
-29 15 -29 4 0 11 -18 15 -40 4 -22 10 -42 15 -45 4 -3 11 -21 15 -41 3 -20
10 -44 15 -53 5 -9 12 -33 15 -53 7 -43 12 -45 84 -21 36 11 51 21 51 34 0 10
-4 21 -10 24 -5 3 -10 13 -10 22 0 18 -14 49 -86 198 -58 118 -98 194 -111
210 -5 6 -20 28 -33 50 -13 22 -26 42 -29 45 -4 3 -23 31 -45 63 -21 31 -42
57 -46 57 -4 0 -11 9 -16 19 -21 45 -203 243 -372 404 -58 55 -72 65 -72 51z"/>
<path d="M2805 2576 c-128 -131 -175 -182 -230 -251 -22 -28 -48 -59 -57 -69
-10 -11 -30 -38 -45 -60 -15 -23 -30 -43 -33 -46 -4 -3 -17 -23 -30 -45 -13
-22 -27 -42 -30 -45 -12 -9 -80 -128 -80 -138 0 -6 -4 -12 -8 -14 -7 -3 -70
-127 -93 -183 -4 -11 -17 -41 -28 -67 -12 -26 -21 -53 -21 -60 0 -8 -5 -19
-11 -25 -14 -14 46 -42 95 -46 26 -2 32 2 34 23 2 14 8 30 12 35 5 6 11 28 16
49 4 22 13 51 20 65 8 14 14 34 14 43 0 9 4 19 9 22 5 3 12 18 15 33 4 16 21
57 38 93 17 36 38 81 47 100 9 19 22 41 29 48 6 7 12 18 12 23 0 16 156 264
184 292 7 6 30 37 51 67 21 30 41 57 45 60 4 3 40 43 80 90 40 47 77 87 81 88
11 4 12 32 2 32 -5 -1 -57 -51 -118 -114z"/>
<path d="M3745 2607 c-4 -10 -3 -23 4 -30 16 -16 26 0 14 25 -10 21 -11 22
-18 5z"/>
<path d="M3174 2596 c-8 -22 3 -33 18 -18 9 9 9 15 0 24 -9 9 -13 7 -18 -6z"/>
<path d="M3055 2589 c-10 -15 3 -25 16 -12 7 7 7 13 1 17 -6 3 -14 1 -17 -5z"/>
<path d="M3023 2543 c-4 -10 -12 -22 -20 -26 -7 -4 -13 -15 -13 -22 0 -8 -4
-15 -8 -15 -10 0 -159 -224 -207 -310 -75 -138 -128 -259 -160 -365 -9 -33
-21 -68 -26 -77 -5 -9 -12 -36 -15 -60 -4 -24 -11 -48 -16 -55 -14 -18 -1 -33
28 -33 14 0 34 -5 44 -10 16 -9 20 -7 24 12 20 100 46 216 56 258 12 52 38
127 51 152 5 10 9 23 9 28 0 26 116 263 183 375 26 44 54 89 60 100 7 10 18
25 25 33 6 7 12 18 12 23 0 16 -20 10 -27 -8z"/>
<path d="M3144 2533 c-4 -16 -10 -30 -14 -33 -7 -5 -29 -50 -86 -177 -44 -99
-52 -117 -62 -143 -6 -14 -20 -46 -31 -72 -12 -26 -21 -51 -21 -56 0 -5 -7
-23 -15 -38 -8 -16 -15 -39 -15 -51 0 -12 -4 -25 -10 -28 -5 -3 -10 -14 -10
-23 0 -9 -7 -30 -15 -45 -8 -15 -17 -45 -21 -65 -4 -20 -10 -41 -14 -47 -5 -5
-13 -32 -19 -60 -6 -27 -18 -79 -27 -115 -9 -36 -20 -87 -26 -115 -5 -27 -14
-64 -19 -82 -5 -17 -14 -69 -19 -115 -5 -46 -14 -110 -19 -143 -14 -91 -14
-432 1 -437 21 -7 143 13 154 25 7 8 8 36 2 87 -16 142 -21 363 -9 445 6 44
15 125 21 180 16 160 47 338 76 439 8 26 14 59 14 72 0 12 4 25 9 28 5 3 12
27 16 52 4 26 10 54 15 63 5 9 18 48 30 86 12 39 28 84 36 102 8 17 14 38 14
46 0 9 8 30 17 49 9 18 22 45 30 60 7 14 13 34 13 45 0 10 7 27 15 37 17 22
20 56 5 56 -5 0 -13 -12 -16 -27z"/>
<path d="M3362 2530 c0 -19 2 -27 5 -17 2 9 2 25 0 35 -3 9 -5 1 -5 -18z"/>
<path d="M3770 2535 c0 -14 7 -28 15 -31 8 -4 15 -17 15 -29 0 -13 6 -36 14
-52 27 -54 46 -104 46 -121 0 -9 7 -26 15 -36 8 -11 15 -32 15 -46 0 -14 7
-35 15 -46 8 -10 15 -30 15 -44 0 -14 7 -36 15 -50 8 -14 14 -36 15 -50 0 -14
7 -38 15 -54 8 -15 15 -42 15 -60 0 -17 7 -44 15 -60 8 -15 15 -44 15 -62 0
-19 7 -51 15 -71 8 -19 15 -54 15 -78 0 -23 7 -64 15 -91 8 -27 15 -74 15
-104 0 -30 7 -95 15 -145 20 -124 20 -383 -1 -501 -9 -51 -14 -99 -11 -108 6
-14 21 -16 94 -14 l88 3 -4 235 c-2 160 -8 249 -17 280 -8 25 -14 69 -14 98 0
29 -7 69 -15 89 -8 19 -15 54 -15 77 -1 22 -7 52 -15 66 -8 14 -15 41 -15 60
0 19 -7 46 -15 60 -8 14 -14 36 -15 50 0 14 -7 38 -15 54 -8 15 -15 38 -15 50
0 12 -7 31 -15 42 -8 10 -15 33 -15 50 0 17 -7 37 -15 44 -8 7 -15 21 -15 32
0 11 -7 36 -16 56 -8 21 -21 51 -28 67 -8 17 -21 50 -31 75 -27 67 -52 123
-110 245 -29 61 -55 118 -58 128 -9 26 -27 21 -27 -8z"/>
<path d="M3326 2434 c-3 -9 -6 -34 -6 -57 -1 -23 -7 -53 -15 -67 -8 -14 -14
-48 -15 -77 0 -28 -5 -64 -11 -80 -7 -15 -16 -77 -20 -138 -4 -60 -13 -159
-18 -218 -7 -74 -7 -148 0 -230 6 -67 14 -162 18 -212 4 -49 13 -103 19 -118
7 -16 12 -47 12 -70 0 -51 19 -91 44 -95 28 -6 106 36 106 56 0 9 -7 30 -15
46 -8 15 -15 38 -15 50 0 11 -7 34 -15 50 -8 15 -15 41 -15 57 0 17 -7 46 -15
66 -8 19 -15 56 -15 82 0 25 -7 71 -15 101 -21 79 -21 605 0 705 8 38 15 89
15 112 0 44 -13 64 -24 37z"/>
<path d="M4075 2439 c-4 -5 0 -18 9 -28 9 -10 16 -20 16 -24 0 -3 17 -32 38
-64 43 -64 44 -66 120 -220 74 -151 80 -164 88 -196 3 -15 10 -30 15 -33 5 -3
9 -15 9 -28 0 -12 7 -31 15 -42 8 -10 15 -32 15 -49 0 -16 7 -43 15 -59 8 -15
15 -39 15 -52 0 -32 14 -37 50 -19 30 15 39 38 20 50 -5 3 -10 15 -10 27 0 11
-6 34 -14 51 -8 18 -24 59 -37 92 -13 33 -27 64 -31 69 -4 6 -8 18 -8 27 0 9
-7 22 -15 29 -8 7 -15 20 -15 30 0 10 -7 23 -15 30 -8 7 -15 18 -15 26 0 7
-13 32 -29 56 -16 24 -37 59 -48 78 -25 47 -89 144 -105 161 -7 8 -26 33 -42
57 -32 46 -32 47 -41 31z"/>
<path d="M3690 2416 c0 -22 3 -27 11 -19 8 8 8 16 0 30 -9 16 -10 14 -11 -11z"/>
<path d="M3716 2361 c-9 -14 2 -51 15 -51 11 0 12 30 0 49 -6 9 -11 10 -15 2z"/>
<path d="M3500 2183 c0 -73 5 -125 15 -153 8 -23 15 -57 15 -74 1 -17 7 -42
15 -56 8 -14 14 -36 15 -50 0 -14 6 -35 14 -46 8 -11 16 -31 18 -44 4 -33 41
-39 61 -10 13 19 12 26 -9 68 -42 86 -73 172 -83 227 -4 23 -11 47 -15 54 -5
8 -12 50 -17 94 -13 126 -29 121 -29 -10z"/>
<path d="M3740 2263 c0 -16 7 -41 15 -57 8 -15 15 -39 15 -51 0 -13 5 -36 11
-52 6 -15 17 -66 26 -113 8 -47 18 -105 23 -130 5 -25 9 -127 9 -226 1 -180 1
-182 24 -188 49 -13 49 -13 43 102 -5 122 -23 300 -32 322 -4 8 -12 42 -20 75
-27 124 -36 160 -45 170 -5 5 -9 20 -9 33 0 13 -6 38 -14 55 -8 18 -17 44 -20
60 -4 15 -11 27 -16 27 -6 0 -10 -12 -10 -27z"/>
<path d="M4820 2115 c0 -9 7 -18 15 -21 8 -4 15 -12 15 -20 0 -8 5 -14 10 -14
6 0 14 -8 17 -17 4 -10 19 -36 35 -57 15 -21 28 -43 28 -47 0 -4 13 -27 29
-51 30 -45 107 -194 136 -263 9 -22 23 -53 30 -70 8 -16 17 -42 21 -58 3 -15
10 -30 15 -33 5 -3 9 -17 9 -32 0 -15 7 -40 15 -56 8 -15 15 -43 15 -60 0 -46
20 -68 55 -64 36 4 45 36 21 73 -9 13 -16 32 -16 42 0 10 -7 31 -15 47 -8 15
-15 33 -15 39 0 9 -27 70 -69 157 -40 83 -89 169 -128 228 -24 35 -43 66 -43
68 0 3 -20 32 -45 64 -25 32 -45 62 -45 67 0 5 -13 20 -28 33 -15 14 -31 33
-35 43 -8 21 -27 23 -27 2z"/>
<path d="M2575 2050 c-4 -6 -3 -16 3 -22 6 -6 12 -6 17 2 4 6 3 16 -3 22 -6 6
-12 6 -17 -2z"/>
<path d="M2547 1993 c-4 -3 -7 -15 -7 -25 0 -26 24 -17 28 10 3 21 -8 29 -21
15z"/>
<path d="M2517 1933 c-4 -3 -7 -16 -7 -28 0 -13 -7 -28 -15 -35 -8 -7 -15 -21
-15 -30 0 -10 -6 -31 -14 -47 -8 -15 -22 -48 -31 -73 -9 -25 -23 -58 -31 -73
-8 -16 -14 -39 -14 -52 0 -12 -7 -36 -15 -51 -8 -16 -15 -42 -15 -57 0 -16 -5
-38 -11 -49 -7 -12 -15 -47 -19 -77 -5 -31 -13 -74 -18 -96 -6 -22 -12 -80
-14 -130 -3 -88 -3 -90 21 -93 33 -5 45 12 43 61 -2 23 2 66 7 95 6 29 13 92
17 140 4 48 10 95 15 104 5 9 13 43 18 75 12 71 29 138 47 181 8 18 14 43 14
55 0 12 7 31 15 41 8 11 15 32 15 47 0 14 7 32 15 39 8 7 15 23 15 36 0 23
-10 31 -23 17z"/>
<path d="M3115 1714 c-10 -87 0 -420 14 -499 6 -33 15 -87 20 -120 19 -123 49
-225 66 -225 15 0 45 33 45 49 0 7 -6 27 -14 44 -50 113 -104 454 -106 662 0
149 -14 196 -25 89z"/>
</g>
</svg>
